<?xml version="1.0" encoding="UTF-8"?>
<svg id="Capa_2" data-name="Capa 2" xmlns="http://www.w3.org/2000/svg" viewBox="0 0 126.12 34.09">
  <defs>
    <style>
      .cls-1 {
        fill: #fff;
      }
    </style>
  </defs>
  <g id="Capa_1-2" data-name="Capa 1">
    <g>
      <g>
        <g>
          <g>
            <g>
              <path class="cls-1" d="M2.49,22.65c.51.51,1.46.73,2.83.66.58-.03,1.28-.12,2.12-.26,1.06-.9,3.29-3.01,6.71-6.31,3.41-3.31,5.92-5.56,7.53-6.76.11-.07.18-.16.22-.28s.03-.17-.03-.17l-2.61,1.37c-1.72.92-3.75,1.85-6.11,2.79-2.36.95-4.32,1.46-5.89,1.54-2.36.12-3.28-.55-2.76-2,.3-.84,1.07-1.88,2.32-3.13-1.24,0-1.77-.25-1.59-.76.04-.11.12-.21.26-.32.13-.11.23-.17.3-.17.06,0,.27.05.62.17.35.12.82.17,1.41.16,2.1-1.89,4.54-3.6,7.3-5.15,2.76-1.55,4.99-2.36,6.69-2.45.97-.05,1.36.17,1.19.65-.22.61-1.18,1.48-2.89,2.6-1.71,1.12-3.71,2.19-6.02,3.21-2.31,1.02-4.29,1.66-5.95,1.93-.76.82-1.24,1.54-1.46,2.15-.47,1.33.45,1.93,2.77,1.81,1.31-.07,3.32-.67,6.05-1.81,2.72-1.14,5.61-2.68,8.66-4.62,4.23-2.72,6.66-4.33,7.29-4.84.2-.2.36-.3.5-.3.14,0,.24.04.31.14.07.1.08.21.04.34s-.16.24-.34.33c-2.23,1.46-4.52,3.14-6.89,5.05-2.37,1.91-4.31,3.57-5.84,4.98-1.53,1.41-3.35,3.13-5.47,5.17-2.13,2.03-3.61,3.44-4.46,4.23,1.52-.43,3.01-.95,4.47-1.55,1.46-.6,2.37-1.06,2.73-1.36.21-.01.28.1.2.33-.11.32-1.06.85-2.86,1.59-1.79.74-3.65,1.38-5.56,1.91-3.01,2.66-5.32,4.03-6.93,4.11-.64.03-1-.27-1.08-.92-.07-.65.03-1.36.3-2.12s.56-1.39.87-1.87c.31-.48.55-.73.74-.74.18,0,.29.02.34.08.04.06.05.16.04.29-.02.14-.03.23-.03.3ZM2.47,26.07c.84-.04,2.09-.72,3.75-2.02-.86.17-1.74.28-2.64.32-.9.05-1.49-.13-1.77-.53-.18.03-.33.21-.44.53s-.19.6-.21.82.06.43.25.62c.19.2.55.28,1.06.26ZM19.78,2.79c-1.12.06-2.77.74-4.98,2.04-2.2,1.3-4.11,2.71-5.72,4.22,2.04-.39,4.41-1.3,7.11-2.71,2.7-1.41,4.18-2.45,4.42-3.13.11-.32-.16-.46-.83-.42Z"/>
              <path class="cls-1" d="M1.22,27.86c-.69,0-1.12-.39-1.2-1.11-.08-.68.03-1.42.31-2.22.28-.78.58-1.43.89-1.92.36-.56.64-.82.9-.83.17,0,.4,0,.52.17.07.1.1.24.07.44-.01.07-.02.14-.02.18.48.42,1.35.6,2.61.54.56-.03,1.24-.11,2.03-.25,1.06-.91,3.3-3.02,6.65-6.27,3.06-2.97,5.42-5.11,7.03-6.38l-1.68.89c-1.72.92-3.78,1.86-6.13,2.8-2.37.95-4.37,1.48-5.96,1.56-1.51.08-2.46-.16-2.88-.73-.29-.39-.32-.91-.09-1.55.28-.79.96-1.75,2.03-2.86-.67-.04-1.07-.19-1.25-.44-.08-.11-.15-.31-.06-.58.05-.14.15-.28.32-.41.18-.15.3-.21.42-.22.08,0,.18,0,.7.18.31.1.73.16,1.26.15,2.09-1.87,4.54-3.59,7.28-5.12,2.78-1.56,5.06-2.39,6.78-2.48.72-.03,1.15.07,1.34.33.08.11.16.31.06.6-.23.66-1.2,1.54-2.97,2.7-1.71,1.12-3.75,2.21-6.06,3.23-2.28,1.01-4.28,1.66-5.93,1.94-.71.78-1.17,1.46-1.37,2.03-.16.44-.15.76.03,1,.22.29.82.63,2.53.53,1.28-.07,3.29-.67,5.98-1.8,2.71-1.13,5.61-2.68,8.63-4.6,4.21-2.7,6.65-4.32,7.27-4.83.22-.22.43-.34.63-.35.01,0,.03,0,.04,0,.24,0,.38.12.46.23.11.16.13.34.06.53-.06.18-.21.33-.44.44-2.2,1.44-4.51,3.13-6.85,5.03-2.36,1.9-4.32,3.57-5.83,4.97-1.52,1.41-3.36,3.15-5.47,5.16-1.69,1.62-2.95,2.82-3.82,3.63,1.22-.37,2.43-.81,3.61-1.29,1.43-.59,2.33-1.04,2.67-1.33l.05-.05h.07c.21,0,.33.07.38.15.09.11.09.27.02.46-.1.28-.53.7-2.97,1.71-1.78.74-3.64,1.38-5.54,1.91-3.06,2.69-5.35,4.04-7.02,4.13-.03,0-.07,0-.1,0ZM2.22,22.19s-.04,0-.07,0c0,0-.17.01-.57.64-.3.46-.58,1.08-.85,1.83-.26.74-.36,1.42-.29,2.03.06.54.31.77.86.74,1.55-.08,3.84-1.44,6.8-4.06l.08-.04c1.9-.53,3.76-1.17,5.54-1.9,2.4-1,2.7-1.37,2.74-1.46-.44.32-1.31.74-2.65,1.29-1.46.6-2.97,1.13-4.49,1.56l-.83.24.64-.59c.83-.77,2.29-2.15,4.46-4.23,2.11-2.02,3.95-3.75,5.48-5.17,1.52-1.4,3.48-3.08,5.85-4.99,2.35-1.9,4.68-3.61,6.9-5.06.15-.08.23-.15.26-.22.03-.08.01-.12-.01-.15-.02-.02-.04-.05-.11-.05h-.02s-.15.03-.37.24c-.64.53-3.1,2.16-7.32,4.87-3.04,1.93-5.96,3.49-8.69,4.63-2.73,1.15-4.79,1.76-6.12,1.83-1.52.08-2.47-.15-2.88-.7-.26-.35-.29-.82-.09-1.39.23-.64.74-1.38,1.51-2.22l.05-.05h.07c1.63-.28,3.61-.92,5.9-1.93,2.28-1.01,4.3-2.08,5.99-3.19,2.07-1.36,2.66-2.11,2.8-2.49.05-.15.02-.2,0-.21-.04-.05-.2-.2-.99-.16-1.66.08-3.87.9-6.6,2.42-2.74,1.53-5.18,3.26-7.26,5.12l-.06.05h-.08c-.6,0-1.11-.05-1.48-.17-.42-.14-.53-.16-.55-.16,0,0-.05.02-.17.12-.13.11-.18.18-.19.23-.04.11-.02.17,0,.2.06.08.31.28,1.38.28h.52s-.36.36-.36.36c-1.21,1.21-1.98,2.24-2.27,3.05-.18.5-.17.89.03,1.16.33.44,1.17.63,2.53.56,1.54-.08,3.5-.59,5.82-1.53,2.34-.94,4.39-1.88,6.09-2.78l2.69-1.4h.11s.11.1.11.1c.1.13.04.29.02.35-.06.16-.16.29-.31.38-1.58,1.18-4.1,3.45-7.49,6.73-3.4,3.3-5.66,5.43-6.72,6.32l-.04.04h-.06c-.83.16-1.56.25-2.14.28-1.44.08-2.43-.16-2.99-.72l-.06-.06v-.09c0-.07,0-.18.03-.32,0-.07,0-.12,0-.13-.01,0-.04,0-.09,0ZM2.3,26.28c-.48,0-.82-.11-1.03-.32-.24-.24-.34-.51-.31-.79.03-.24.1-.53.22-.86.14-.4.35-.63.6-.67l.13-.02.07.11c.23.34.77.48,1.59.44.88-.04,1.76-.15,2.61-.32l.85-.17-.68.53c-1.72,1.35-2.98,2.02-3.87,2.07h0c-.06,0-.13,0-.19,0ZM1.76,24.09c-.07.06-.13.18-.19.35-.11.31-.18.57-.2.77-.02.15.05.3.19.45.15.15.45.22.9.19h0c.67-.03,1.67-.53,2.96-1.46-.6.09-1.21.15-1.82.18-.89.04-1.49-.11-1.84-.48ZM8.41,9.38l.53-.49c1.62-1.51,3.55-2.94,5.76-4.24,2.25-1.33,3.91-2.01,5.07-2.07h0c.52-.02.84.05.99.25.06.09.12.23.05.45-.17.47-.81,1.31-4.51,3.24-2.71,1.41-5.12,2.33-7.17,2.73l-.71.14ZM19.79,2.99c-1.08.06-2.72.73-4.88,2.01-1.92,1.14-3.64,2.37-5.11,3.67,1.84-.45,3.95-1.3,6.29-2.52,3.29-1.72,4.16-2.59,4.32-3.01.01-.04.01-.06.01-.06,0,0-.08-.12-.63-.08h0Z"/>
            </g>
            <g>
              <path class="cls-1" d="M29.08,13.44c1.2-.06,2.88-.8,5.02-2.21l.49.13c-2.72,1.83-4.84,2.79-6.36,2.87-.17,0-.3,0-.38-.01-.83.72-1.66,1.32-2.5,1.79-.84.47-1.52.71-2.03.74-.82.04-1.06-.38-.74-1.28s1.51-2.13,3.56-3.7c-.04-.6.06-1.23.3-1.91s.68-1.23,1.33-1.68c.64-.45,1.29-.69,1.95-.72.65-.03,1.13.15,1.43.55.3.4.31.99.03,1.77-.43,1.2-1.25,2.42-2.47,3.66.08.02.2.02.37.01ZM23.96,15.23c-.15.42.05.62.61.59.56-.03,1.46-.62,2.72-1.78-.47-.26-.81-.75-.99-1.47-1.3,1.06-2.08,1.95-2.34,2.66ZM28.17,13.18c1.06-1.13,1.72-2.08,1.99-2.85s.28-1.33.03-1.68c-.25-.35-.56-.51-.93-.5-.75.04-1.26.44-1.53,1.19s-.37,1.5-.29,2.23c.08.73.32,1.26.73,1.59Z"/>
              <path class="cls-1" d="M23.22,16.96c-.39,0-.67-.11-.83-.33-.2-.27-.21-.68,0-1.23.33-.93,1.49-2.15,3.55-3.73-.02-.59.09-1.22.32-1.88.26-.71.73-1.31,1.4-1.78.67-.47,1.36-.72,2.05-.76.72-.03,1.27.18,1.61.63.34.46.37,1.12.06,1.96-.39,1.11-1.13,2.25-2.19,3.39,1.15-.1,2.77-.83,4.8-2.17l.08-.05,1.02.27-.38.26c-2.78,1.87-4.89,2.82-6.47,2.91-.13,0-.24,0-.32,0-.81.7-1.64,1.29-2.47,1.75-.88.49-1.57.74-2.12.77-.04,0-.08,0-.11,0ZM29.87,7.66s-.09,0-.14,0c-.61.03-1.23.26-1.84.68-.61.42-1.02.94-1.25,1.58-.23.64-.33,1.26-.29,1.82v.11s-.08.07-.08.07c-2.01,1.54-3.19,2.75-3.49,3.61-.14.4-.16.7-.05.84.11.15.37.17.59.16.48-.02,1.13-.26,1.94-.71h0c-.26.12-.48.19-.68.2-.37.01-.64-.06-.78-.25-.12-.16-.13-.37-.04-.62h0c.27-.76,1.06-1.66,2.4-2.75l.25-.2.08.31c.17.65.47,1.1.89,1.34l.25.14-.21.19c-.55.51-1.03.91-1.45,1.2.58-.38,1.17-.82,1.74-1.33l.08-.07.1.02s.12.02.32,0c.93-.05,2.12-.45,3.54-1.19-1.05.51-1.93.78-2.67.82-.2,0-.33,0-.43-.02l-.37-.08.27-.27c1.2-1.22,2.01-2.42,2.43-3.59.25-.71.25-1.23,0-1.57-.24-.31-.6-.47-1.12-.47ZM26.19,12.92c-1.12.94-1.81,1.74-2.03,2.37h0c-.04.11-.05.2-.02.23.01.02.08.1.43.08.33-.02,1.01-.3,2.39-1.55-.33-.26-.59-.64-.76-1.14ZM28.19,13.47l-.15-.12c-.45-.37-.72-.95-.8-1.73-.08-.75.02-1.54.3-2.32.3-.84.88-1.29,1.72-1.33.41-.01.81.17,1.11.58.3.41.3,1.02,0,1.87-.28.8-.95,1.76-2.04,2.92l-.13.14ZM29.32,8.37s-.03,0-.04,0c-.66.03-1.1.38-1.35,1.06-.26.73-.35,1.45-.28,2.14.06.58.23,1.02.51,1.32.95-1.04,1.56-1.92,1.81-2.62.25-.7.27-1.2.06-1.48-.2-.28-.43-.41-.71-.41Z"/>
            </g>
            <g>
              <path class="cls-1" d="M54.68,1.65h-4.52c-1.89.11-3.79.28-5.71.52l-.06.62c-.08.23-1.09,1.15-3.03,2.74-1.94,1.6-3.93,3.33-5.96,5.21-2.04,1.87-3.21,3.24-3.52,4.1-.12.34-.06.5.19.49.25-.01.91-.34,2.01-.97,2.01-1.14,3.88-2.28,5.61-3.42l.91-.6c.19-.11.34-.17.44-.18.11,0,.14.06.09.18l-.03.09c.09,0-.65.49-2.22,1.48-1.56.99-3.21,1.98-4.95,2.98-1.74,1-2.79,1.51-3.15,1.53-.62.03-.84-.23-.64-.77.29-.8,1.14-1.93,2.55-3.39,1.41-1.46,2.89-2.84,4.42-4.15,1.53-1.31,2.98-2.55,4.36-3.71,1.37-1.17,2.15-1.88,2.32-2.14-2.44.33-4.34.68-5.71,1.04l-.69.16c-.18.03-.32.19-.43.49-.05.13-.22.2-.52.21-.3.02-.65-.03-1.04-.15-.39-.11-.54-.3-.45-.55s.36-.43.82-.54c3.37-.71,5.74-1.16,7.11-1.34,1.37-.18,2.28-.3,2.73-.36.45-.05,1.15-.12,2.09-.18.94-.07,1.57-.11,1.89-.13.98-.09,2.12-.17,3.42-.24,1.3-.07,2.07-.05,2.31.04.24.09.31.28.2.58-.08.21-.36.33-.85.35Z"/>
              <path class="cls-1" d="M30.67,16.64c-.34,0-.57-.09-.71-.27-.14-.19-.15-.45-.03-.78.3-.84,1.15-1.97,2.6-3.46,1.41-1.45,2.9-2.86,4.43-4.16,1.53-1.31,2.98-2.55,4.36-3.71,1-.85,1.58-1.37,1.91-1.69-2.14.3-3.86.62-5.11.95l-.7.16c-.14.02-.23.23-.28.35-.12.32-.56.34-.71.35-.31.01-.69-.04-1.1-.16-.29-.09-.48-.21-.57-.39-.05-.09-.09-.24-.02-.43.12-.32.44-.55.97-.67,3.37-.71,5.77-1.16,7.13-1.34,1.37-.18,2.29-.3,2.74-.36.44-.05,1.13-.11,2.1-.19.94-.07,1.57-.11,1.9-.13.96-.09,2.11-.17,3.42-.24,1.78-.09,2.22-.01,2.39.05.17.06.53.27.33.84-.11.3-.45.46-1.04.49h-.01s-4.52.02-4.52.02c-1.8.09-3.66.26-5.52.49l-.05.46c-.06.18-.15.45-3.11,2.88-1.93,1.59-3.93,3.34-5.95,5.2-2,1.84-3.17,3.19-3.46,4.02-.06.17-.05.23-.05.23.15-.03.55-.16,1.94-.96,1.99-1.13,3.88-2.28,5.6-3.41l.91-.6c.23-.14.4-.21.55-.21.14,0,.24.07.27.11.07.09.07.2.03.34v.03c.01.16-.22.31-2.34,1.65-1.57.99-3.23,2-4.96,2.99-2.37,1.37-2.99,1.54-3.24,1.55-.04,0-.07,0-.11,0ZM44.21,2l-.27.39c-.19.28-.96.99-2.36,2.18-1.37,1.17-2.83,2.4-4.36,3.71-1.52,1.3-3,2.69-4.4,4.14-1.39,1.43-2.23,2.54-2.5,3.31-.07.19-.08.33-.03.4.06.08.23.12.46.1.15,0,.63-.15,2.07-.94-.45.22-.64.26-.76.27-.21,0-.33-.08-.39-.16-.1-.14-.11-.34,0-.61.32-.9,1.49-2.27,3.57-4.19,2.03-1.86,4.04-3.62,5.97-5.21,2.43-2,2.88-2.51,2.96-2.64l.08-.75.16-.02c1.93-.24,3.85-.41,5.73-.51h4.53c.55-.04.65-.19.66-.23.09-.25,0-.29-.08-.31-.12-.04-.57-.11-2.22-.02-1.3.07-2.45.15-3.41.24-.33.02-.96.06-1.9.13-.96.07-1.64.13-2.08.18-.45.05-1.36.17-2.73.36-1.35.18-3.74.63-7.1,1.34-.38.09-.61.22-.67.4-.02.07-.01.09,0,.1.01.03.08.11.32.18.37.11.69.16.97.14.28-.01.33-.08.33-.08.13-.37.33-.58.59-.62l.68-.16c1.37-.36,3.3-.71,5.73-1.04l.47-.06Z"/>
            </g>
            <g>
              <path class="cls-1" d="M42.79,11.69c-.13,0-.18-.04-.14-.13s.15-.21.34-.34c.91-.6,1.45-1.14,1.61-1.6.11-.29-.1-.45-.62-.46-.97.07-2.37.81-4.19,2.23-1.82,1.42-2.85,2.46-3.09,3.14-.08.23,0,.34.28.33.27-.01.69-.21,1.27-.59.5-.27,1.48-.94,2.96-2.01.35-.27.64-.4.87-.42.3-.02.4.11.3.39-.04.11-.1.19-.19.26s-.25.2-.49.41c-.24.21-.46.4-.65.58-.58.57-.9.94-.96,1.1-.15.42-.05.62.29.61.45-.02,1.44-.47,2.98-1.35,1.53-.87,2.96-1.75,4.28-2.62l1.97-1.28c.19-.11.35-.17.47-.18.13,0,.17.06.11.21l-.02.06c-2.14,1.45-4.34,2.83-6.6,4.12-2.26,1.29-3.68,1.96-4.26,1.99-.69.04-.9-.31-.65-1.02.06-.17.15-.33.27-.48.12-.15.19-.26.21-.32s.02-.1-.02-.12c-.06,0-.58.31-1.54.92-.96.61-1.73.93-2.3.96-.57.03-.75-.25-.54-.84s.9-1.41,2.06-2.45c1.16-1.04,2.56-2.01,4.21-2.9,1.64-.89,3.11-1.37,4.4-1.44.3-.02.53.05.68.18.15.14.17.36.06.66s-.58.78-1.42,1.42c-.84.64-1.48.98-1.94,1Z"/>
              <path class="cls-1" d="M39.22,16.33c-.34,0-.59-.1-.74-.29-.17-.23-.18-.56-.02-1.01.04-.12.1-.24.17-.35-.22.13-.52.32-.95.59-1.01.63-1.79.96-2.4.99-.33,0-.59-.07-.73-.25-.15-.2-.15-.48-.02-.87.22-.63.92-1.46,2.11-2.53,1.17-1.05,2.6-2.03,4.25-2.93,1.67-.9,3.18-1.39,4.49-1.46.34-.02.63.06.83.24.15.14.29.4.12.89-.13.35-.6.83-1.49,1.52-.88.68-1.55,1.02-2.05,1.04h0c-.08,0-.15,0-.2-.03.05.11.04.25-.02.41-.05.14-.14.26-.26.35-.08.06-.25.2-.48.4-.24.21-.46.4-.64.57-.77.75-.89.97-.91,1.02-.09.24-.05.31-.05.31,0,0,.04.03.13.02.28-.01,1.02-.25,2.88-1.32,1.53-.87,2.96-1.75,4.27-2.62l1.97-1.28c.22-.14.41-.2.58-.21.16,0,.25.06.3.12.07.09.08.22.02.37l-.04.13-.06.04c-2.13,1.45-4.36,2.84-6.62,4.13-2.31,1.32-3.74,1.98-4.35,2.01-.03,0-.07,0-.1,0ZM39.17,13.96l.05.03c.1.06.18.18.12.37-.02.06-.07.16-.24.38-.1.13-.18.28-.23.42-.11.3-.12.52-.04.62.09.12.32.13.48.12.28-.01.91-.21,2.33-.95-.57.26-.98.4-1.25.41-.23,0-.39-.05-.49-.19-.12-.16-.12-.39-.01-.7.05-.14.21-.4,1.01-1.18.19-.18.41-.37.66-.58.25-.21.42-.35.5-.42.06-.04.09-.1.12-.16.02-.06.02-.09.02-.11,0,0-.03,0-.08,0-.01,0-.02,0-.04,0-.13,0-.37.08-.76.37-.94.68-1.69,1.2-2.24,1.56,0,0,.01,0,.02,0h.06ZM42.62,9.32c-.48.2-.99.44-1.51.72-1.62.88-3.02,1.84-4.17,2.87-1.13,1.01-1.8,1.81-2,2.36-.08.23-.1.4-.04.48.05.06.18.1.37.09.52-.03,1.25-.33,2.16-.9-.17.07-.32.11-.45.11-.21.01-.37-.04-.45-.16-.08-.11-.09-.26-.03-.44.26-.72,1.29-1.78,3.16-3.23,1.15-.9,2.13-1.53,2.95-1.89ZM43.97,9.35c-.91.07-2.28.8-4.06,2.19-1.78,1.39-2.8,2.41-3.02,3.04,0,.02-.01.04-.01.05h.05s.02,0,.04,0c.16,0,.49-.11,1.17-.56.5-.28,1.49-.95,2.95-2.01.38-.29.7-.44.99-.46.16,0,.28.02.37.07-.01-.05-.01-.12.01-.19.05-.14.18-.28.42-.45.87-.58,1.39-1.08,1.53-1.5.01-.04.02-.07.01-.08,0,0-.07-.09-.44-.1ZM43.97,8.94c.43.01.67.1.8.28.06.09.12.24.04.46-.18.51-.74,1.07-1.69,1.71-.02.02-.05.03-.07.05.39-.11.91-.42,1.56-.91,1.05-.81,1.3-1.18,1.35-1.33.08-.22.07-.37,0-.44-.11-.1-.29-.14-.53-.13-.65.03-1.36.18-2.12.44.24-.07.46-.11.67-.13Z"/>
            </g>
            <g>
              <path class="cls-1" d="M55.5,9.61c.21-.11.37-.17.49-.18.12,0,.15.06.1.21l-.02.06c-2.14,1.45-4.34,2.83-6.6,4.12-2.26,1.29-3.64,1.95-4.13,1.98-.49.03-.87-.04-1.14-.21-.27-.16-.36-.36-.28-.59s.22-.43.4-.59c.19-.16.33-.25.44-.25s.23.15.36.46c.13.31.31.46.55.45.49-.03,1.06-.56,1.71-1.61.65-1.05,1.04-1.76,1.18-2.15s.18-.58.13-.58c-.05,0-.11.03-.17.07l-1.19.77.04-.47c1.73-1.12,2.76-1.87,3.1-2.24.25-.34.49-.52.73-.53.15,0,.21.04.17.15s-.19.34-.47.69c-.27.36-.75,1.15-1.43,2.38-.68,1.23-1.06,1.95-1.12,2.14s-.05.28.06.28c1.82-.98,3.81-2.19,5.97-3.62l1.15-.74Z"/>
              <path class="cls-1" d="M45.14,16.02c-.44,0-.8-.08-1.06-.24-.48-.29-.44-.65-.37-.84.09-.26.25-.49.46-.68.23-.2.41-.3.57-.31.29-.02.43.29.56.59.14.33.29.33.35.32.29-.01.79-.29,1.54-1.51.64-1.03,1.03-1.74,1.16-2.12.02-.04.03-.08.04-.12l-1.32.86.08-.99.09-.06c1.7-1.11,2.74-1.85,3.07-2.2.27-.38.57-.58.87-.6.16-.01.27.03.34.13.04.05.09.15.03.3-.03.08-.11.25-.5.75-.27.34-.74,1.14-1.42,2.36-.56,1.01-.91,1.67-1.05,1.97,1.73-.95,3.63-2.11,5.66-3.45l1.17-.75c.24-.13.43-.2.58-.21.16,0,.25.07.28.12.07.09.08.22.02.37l-.04.13-.06.04c-2.13,1.45-4.36,2.84-6.62,4.13-3.08,1.76-3.89,1.99-4.23,2.01-.07,0-.13,0-.2,0ZM44.73,14.37s-.09.05-.28.21c-.16.14-.27.31-.34.51-.02.07-.07.19.19.34.23.14.57.2,1.03.18.28-.01,1.04-.28,3.09-1.42h-.01c-.15,0-.23-.07-.26-.11-.1-.13-.05-.32,0-.44.05-.13.21-.49,1.14-2.17.69-1.26,1.17-2.04,1.45-2.41.17-.21.27-.36.33-.46-.14.07-.28.2-.43.4-.28.31-.94.81-2.02,1.54.02,0,.04,0,.05,0h.11s.08.09.08.09c.08.11.08.23-.11.77-.15.41-.54,1.13-1.2,2.19-.69,1.12-1.31,1.68-1.88,1.71-.01,0-.02,0-.04,0-.23,0-.52-.11-.72-.58-.1-.25-.17-.32-.19-.34Z"/>
            </g>
          </g>
          <g>
            <g>
              <path class="cls-1" d="M68.79,10.4c-4.16,2.74-6.58,4.12-7.27,4.16-.27.01-.34-.13-.23-.44s.41-.82.9-1.56c0-.02,0-.02-.04-.02-2.31,1.55-3.76,2.33-4.36,2.36-.41.02-.56-.11-.45-.41.23-.64,1.27-1.62,3.12-2.93,1.85-1.31,3.2-1.99,4.04-2.03.11,0,.2.07.27.21.54-.54,3.56-3.47,9.05-8.78.56-.49.96-.75,1.2-.76.24-.01.34.06.28.21-.14.38-2.12,2.26-5.95,5.62-1.43,1.28-2.8,2.6-4.11,3.96-1.31,1.37-2.08,2.39-2.33,3.08-.1.29-.07.43.1.42.2-.01.62-.2,1.26-.58,1.33-.8,2.5-1.54,3.52-2.21l.58-.39c.14-.08.25-.13.35-.13.09,0,.12.05.08.15l-.02.05ZM63.42,11.11l1.15-1.16s-.09-.02-.13-.02c-.65.03-1.69.57-3.1,1.6-1.41,1.03-2.19,1.75-2.33,2.15-.04.11,0,.16.13.15.39-.02,1.1-.38,2.13-1.07s1.74-1.24,2.15-1.65Z"/>
              <path class="cls-1" d="M57.72,15.12c-.26,0-.44-.07-.54-.2-.09-.13-.11-.29-.04-.48.25-.69,1.29-1.68,3.2-3.03,1.9-1.35,3.26-2.02,4.15-2.07.08,0,.2.01.3.11.86-.84,3.84-3.73,8.89-8.62.81-.71,1.15-.81,1.34-.82.08,0,.33-.02.45.15.04.05.1.17.03.34-.1.29-.88,1.2-6.01,5.71-1.42,1.27-2.8,2.59-4.1,3.95-1.28,1.34-2.05,2.35-2.28,3.01-.02.06-.03.1-.04.13.14-.03.44-.15,1.1-.54,1.3-.79,2.48-1.53,3.51-2.2l.57-.39c.18-.11.32-.16.45-.17.17,0,.23.07.27.11.06.08.07.19.02.32l-.02.07-.07.08c-5.64,3.71-6.91,4.17-7.37,4.19-.18,0-.33-.04-.42-.16-.15-.2-.05-.47-.02-.56.07-.2.22-.48.44-.85-1.94,1.26-3.16,1.89-3.73,1.92-.03,0-.06,0-.09,0ZM57.51,14.67s.06.04.27.03c.23-.01.71-.17,1.7-.73-.12.04-.23.06-.33.06-.15,0-.26-.06-.31-.12-.04-.06-.08-.16-.03-.31.1-.28.46-.82,2.4-2.25.33-.24.64-.45.92-.64-.47.28-.99.62-1.56,1.02-2.25,1.6-2.9,2.42-3.05,2.83-.02.07-.02.1-.02.1h0ZM62.24,12.33l.17.17-.05.17c-.48.71-.77,1.22-.88,1.51-.03.09-.04.14-.04.16,0,0,.02,0,.03,0h.03c.2-.01.63-.16,1.5-.63h0c-.16,0-.25-.08-.28-.13-.12-.17-.06-.4,0-.57.26-.72,1.03-1.75,2.37-3.16,1.3-1.36,2.69-2.7,4.12-3.98,4.56-4,5.65-5.16,5.86-5.47-.01,0-.02,0-.04,0-.09,0-.37.08-1.07.71-5.46,5.28-8.51,8.24-9.05,8.77l-.21.2h0s-1.14,1.15-1.14,1.15c-.29.29-.73.65-1.32,1.08ZM64,10.22c-.61.19-1.46.68-2.54,1.47-1.41,1.04-1.97,1.59-2.17,1.89.31-.08.86-.33,1.86-1,1.01-.68,1.72-1.23,2.12-1.63l.73-.74Z"/>
            </g>
            <g>
              <path class="cls-1" d="M74.01,10.04c.14-.08.25-.13.35-.13.09,0,.12.05.08.15l-.02.05c-2.09,1.4-3.79,2.46-5.1,3.17-1.31.71-2.4,1.09-3.28,1.14-.7.04-.93-.28-.69-.96.35-.99,1.23-2.04,2.64-3.14,1.4-1.1,2.46-1.67,3.16-1.71.39-.02.51.18.36.61-.38.85-2.01,2.04-4.91,3.59l-.08.23c-.18.51,0,.74.54.72.54-.03,1.18-.23,1.93-.62,1.47-.77,2.89-1.63,4.27-2.59l.76-.51ZM70.29,9.36c-.34.02-.88.32-1.62.92-.74.59-1.33,1.26-1.77,1.98.91-.48,1.71-.98,2.4-1.51.69-.52,1.07-.89,1.15-1.1s.02-.31-.15-.3Z"/>
              <path class="cls-1" d="M65.95,14.63c-.36,0-.62-.1-.76-.29-.16-.22-.17-.53-.02-.94.37-1.03,1.28-2.12,2.7-3.24,1.45-1.14,2.52-1.71,3.27-1.75.24-.01.43.05.54.2.12.16.13.39.02.69-.4.91-2.02,2.1-4.93,3.66l-.05.15c-.06.17-.07.31-.03.36.02.03.11.1.36.08.51-.03,1.13-.23,1.84-.59,1.45-.76,2.88-1.62,4.25-2.57l.77-.52c.17-.1.31-.15.44-.16,0,0,.01,0,.02,0,.14,0,.21.07.25.11.06.08.07.19.03.32l-.02.07-.07.08c-2.09,1.4-3.81,2.47-5.12,3.18-1.33.73-2.47,1.12-3.36,1.16-.04,0-.07,0-.11,0ZM67.96,10.61c-1.27,1.03-2.08,2.01-2.41,2.93-.09.26-.11.46-.03.55.07.09.25.14.52.12.39-.02.83-.11,1.32-.27-.1.02-.2.03-.29.03-.35.02-.59-.06-.72-.24-.13-.18-.14-.43-.03-.75l.08-.22-.08.04.39-.65c.33-.55.75-1.07,1.25-1.54ZM70.24,9.57c-.22.03-.65.22-1.45.87-.46.37-.86.77-1.21,1.19.58-.34,1.1-.69,1.57-1.05.89-.67,1.05-.92,1.08-1h0ZM70.31,9.15c.16,0,.25.07.3.13.12.16.05.37.02.44-.06.17-.25.46-1.2,1.18,1.05-.71,1.68-1.3,1.89-1.76.06-.18.05-.27.03-.29,0-.01-.05-.04-.19-.03-.29.01-.67.14-1.11.37.08-.02.16-.04.23-.04.01,0,.02,0,.03,0Z"/>
            </g>
          </g>
        </g>
        <g>
          <g>
            <g>
              <path class="cls-1" d="M39.53,29.19c.14-.09.27-.13.37-.14.1,0,.13.05.09.16l-.02.05c-2.22,1.5-3.88,2.55-4.97,3.16-1.47.93-2.6,1.42-3.4,1.46-.7.04-.91-.35-.62-1.16.38-1.09,1.67-2.75,3.85-4.98,2.19-2.22,4.48-4.24,6.87-6.06,2.39-1.81,4.05-2.75,4.96-2.8.42-.02.56.14.44.5-.31.9-1.92,2.44-4.83,4.62-2.91,2.19-5.67,4.07-8.29,5.64-1.02,1.19-1.64,2.09-1.85,2.69s-.1.89.33.87c.43-.02,1.08-.3,1.95-.83,1.42-.75,2.85-1.63,4.3-2.64l.8-.55ZM45.78,19.7c-.7.04-2.28,1.1-4.75,3.17-2.47,2.07-4.63,4.13-6.48,6.17,2.38-1.45,4.82-3.19,7.33-5.22,2.5-2.04,3.86-3.34,4.06-3.91.05-.15,0-.22-.15-.21Z"/>
              <path class="cls-1" d="M31.52,34.09c-.33,0-.57-.1-.72-.29-.19-.25-.19-.63,0-1.15.4-1.13,1.67-2.78,3.9-5.05,2.18-2.22,4.5-4.26,6.89-6.08,2.45-1.86,4.11-2.79,5.08-2.84.27-.02.49.05.61.2.11.14.12.34.04.58-.33.94-1.94,2.49-4.9,4.72-2.89,2.18-5.68,4.07-8.28,5.63-.99,1.16-1.59,2.03-1.79,2.6-.15.41-.08.53-.06.55.03.04.14.04.19.04.39-.02,1.02-.29,1.86-.8,1.41-.75,2.85-1.63,4.29-2.63l.81-.56c.17-.11.33-.16.46-.17.14-.01.24.07.27.11.06.09.07.19.03.33l-.04.12-.06.04c-2.21,1.5-3.89,2.56-4.98,3.17-1.5.95-2.64,1.44-3.48,1.49-.04,0-.07,0-.1,0ZM44.05,20.29c-.65.41-1.39.94-2.21,1.56-2.38,1.8-4.68,3.83-6.85,6.04-2.16,2.19-3.44,3.84-3.81,4.9-.13.37-.15.64-.05.76.09.12.3.13.47.12.32-.02.71-.12,1.16-.29-.1.02-.18.03-.27.04-.24.02-.43-.05-.54-.21-.15-.2-.15-.5,0-.94.19-.56.7-1.32,1.53-2.34l-.06.04.37-.41s.03-.03.04-.05l.03-.03.53-.58c1.85-2.04,4.04-4.12,6.5-6.19,1.29-1.09,2.34-1.89,3.16-2.43ZM45.7,19.92c-.51.09-1.71.74-4.53,3.11-1.98,1.66-3.78,3.33-5.36,4.97,1.94-1.26,3.93-2.72,5.94-4.35,2.86-2.33,3.75-3.32,3.96-3.73ZM45.8,19.49c.16,0,.25.07.29.13.07.09.08.21.03.36-.13.38-.67,1.18-3.79,3.73,2.75-2.08,4.29-3.56,4.58-4.39.04-.12.03-.18.02-.19-.01-.01-.07-.04-.25-.04-.48.03-1.18.32-2.11.87.51-.3.91-.45,1.19-.47h0s.02,0,.04,0Z"/>
            </g>
            <g>
              <path class="cls-1" d="M41.33,30.18c-.1,0-.14-.03-.11-.1s.11-.16.26-.27c.7-.47,1.12-.89,1.24-1.24.08-.23-.08-.35-.49-.36-.75.06-1.83.64-3.24,1.74-1.4,1.1-2.2,1.91-2.38,2.44-.06.18,0,.26.22.25.21-.01.53-.17.98-.46.38-.21,1.15-.74,2.28-1.57.27-.21.49-.32.68-.33.23-.01.31.09.24.3-.03.08-.08.15-.14.2-.07.05-.19.16-.38.32-.19.16-.35.31-.5.45-.45.44-.69.73-.74.86-.11.33-.04.48.23.47.35-.02,1.12-.37,2.3-1.05,1.18-.68,2.29-1.36,3.31-2.05l1.52-1c.14-.09.27-.13.37-.14.1,0,.13.05.09.16l-.02.05c-1.65,1.13-3.35,2.2-5.1,3.21-1.75,1.01-2.84,1.53-3.29,1.55-.53.03-.7-.23-.51-.78.05-.13.11-.25.2-.37.09-.12.14-.2.16-.25s.01-.08-.02-.09c-.05,0-.45.24-1.19.71-.74.47-1.34.72-1.78.75-.44.03-.58-.19-.42-.65s.69-1.09,1.58-1.9,1.98-1.56,3.25-2.26c1.27-.7,2.4-1.07,3.4-1.13.23-.01.41.03.53.14.12.11.14.28.05.51s-.45.6-1.1,1.1c-.65.5-1.15.76-1.49.78Z"/>
              <path class="cls-1" d="M38.58,33.83c-.28,0-.48-.08-.6-.24-.14-.19-.15-.46-.02-.82.01-.04.03-.08.05-.12-.15.09-.34.21-.59.37-.78.5-1.39.75-1.88.78-.28.03-.49-.05-.6-.21-.13-.17-.13-.4-.03-.71.17-.49.71-1.14,1.64-1.98.91-.82,2.01-1.59,3.29-2.29,1.29-.71,2.46-1.1,3.49-1.15.29-.02.52.05.68.19.13.11.25.33.11.74-.06.18-.25.49-1.17,1.2-.69.53-1.21.8-1.61.82-.03,0-.06,0-.09,0,.01.08,0,.17-.03.26-.04.12-.11.22-.21.29-.07.05-.19.16-.37.31-.19.16-.35.31-.49.44-.6.59-.68.75-.69.77-.04.11-.04.17-.04.19,0,0,.02,0,.03,0,0,0,.02,0,.03,0,.22-.01.77-.2,2.21-1.03,1.17-.67,2.28-1.36,3.3-2.04l1.52-1c.18-.11.33-.17.47-.17.18,0,.24.07.27.11.06.09.07.2.03.33l-.04.11-.06.04c-1.66,1.14-3.37,2.22-5.11,3.22-2.39,1.38-3.08,1.56-3.39,1.58-.03,0-.06,0-.09,0ZM38.6,31.93c.1.05.17.18.11.35-.02.05-.06.13-.19.31-.08.1-.13.2-.17.31-.1.3-.06.4-.04.44.04.06.16.08.33.07.15,0,.44-.09.99-.34-.06.01-.11.02-.15.02-.25.02-.36-.08-.42-.16-.1-.14-.11-.33-.02-.58.04-.12.17-.32.79-.94.15-.14.32-.29.51-.46.19-.17.32-.28.39-.33.04-.03.06-.06.07-.1,0,0,0-.02,0-.02-.01,0-.02,0-.04,0-.1,0-.27.06-.56.28-.67.49-1.22.88-1.63,1.16ZM39.92,29.03c-1.19.66-2.23,1.39-3.08,2.16-.86.78-1.37,1.39-1.52,1.81-.07.19-.06.29-.04.32.02.03.08.05.25.05.34-.02.8-.2,1.36-.52-.02,0-.05,0-.08,0-.16,0-.27-.05-.35-.14-.05-.07-.1-.19-.03-.39.2-.57,1-1.39,2.45-2.53.37-.29.72-.54,1.04-.76ZM42.24,28.42c-.69.06-1.74.63-3.1,1.7-1.66,1.3-2.17,1.98-2.3,2.32.1,0,.34-.07.88-.43.39-.22,1.15-.74,2.28-1.56.3-.23.56-.35.79-.37.09,0,.17,0,.23.02,0-.03,0-.06.02-.09.04-.12.15-.23.34-.37.83-.55,1.09-.93,1.16-1.14.01-.02-.04-.07-.29-.08ZM42.36,28.01c.27.02.44.1.53.23.05.08.1.21.04.4-.12.34-.45.71-.99,1.12.2-.11.46-.28.77-.52.8-.62.99-.9,1.03-1.01.04-.1.06-.23,0-.29-.09-.08-.26-.09-.37-.09-.32.02-.65.07-1,.16Z"/>
            </g>
          </g>
          <g>
            <g>
              <path class="cls-1" d="M76.05,25l6.87-.86c.17,0,.23.07.17.24s-.27.36-.62.56c-.36.21-.96.37-1.83.48-.86.11-2.66.28-5.39.5-3.66,4.32-5.94,6.5-6.84,6.55-.6.03-.94-.2-1.01-.72-.29-1.82-.82-3.4-1.6-4.74l-1.24.94c-4.2,3.09-8.41,4.76-12.65,5-1.07.06-1.99.04-2.74-.07-.75-.11-1.08-.3-.98-.58.07-.19.22-.29.45-.3.15,0,.32.02.5.09.56.22,1.73.27,3.51.17,3.2-.18,6.66-1.59,10.39-4.22,1.36-1.01,2.06-1.52,2.09-1.54-1.97-.03-3.58-.2-4.82-.5-2.21-.53-3.16-1.26-2.84-2.19.11-.32.38-.59.81-.82.43-.23.93-.36,1.51-.4,2.56-.15,4.59.84,6.1,2.96.19-.01.33,0,.41,0,2.62-2.13,5.95-5.13,10-9,1.42-1.34,2.82-2.64,4.21-3.9,2.89-2.6,4.98-3.94,6.27-4.01.84-.05,1.13.29.88,1-.17.48-1.52,2.41-4.06,5.79-2.54,3.38-5.06,6.56-7.56,9.55ZM58.53,23.78c-.18.53.62.98,2.4,1.35,1.03.19,2.31.32,3.84.4-1.39-1.63-3.06-2.39-5.02-2.28-.71.04-1.12.22-1.23.54ZM68.35,31.48c.45-.03,2.18-1.83,5.18-5.41-2.42.18-3.93.29-4.52.32-.59.03-1.42.06-2.48.08.74,1.42,1.22,2.95,1.43,4.59.03.29.16.42.39.41ZM85.93,9.51c-.71.04-1.92.84-3.62,2.39-1.7,1.55-4,3.74-6.9,6.57-2.9,2.83-5.5,5.19-7.8,7.07,1.49-.04,2.8-.1,3.93-.16,1.13-.07,2.04-.14,2.75-.22,2.56-3.04,5.14-6.24,7.74-9.61,2.6-3.37,3.99-5.3,4.15-5.78.07-.19-.02-.28-.26-.26Z"/>
              <path class="cls-1" d="M50.83,33.2c-.63,0-1.19-.04-1.68-.11-.62-.09-.98-.24-1.11-.47-.07-.12-.08-.25-.04-.38.09-.27.32-.43.64-.44.18-.02.38.03.59.11.52.2,1.67.26,3.42.16,3.15-.18,6.61-1.59,10.28-4.18.72-.53,1.25-.92,1.6-1.18-1.7-.05-3.13-.22-4.25-.49-1.62-.39-2.58-.88-2.92-1.51-.16-.3-.18-.62-.07-.95.13-.36.43-.68.91-.94.45-.24.99-.39,1.6-.42,2.6-.15,4.68.85,6.22,2.95.1,0,.18,0,.24,0,2.6-2.12,5.94-5.13,9.92-8.93,1.4-1.33,2.82-2.64,4.21-3.9,2.95-2.66,5.05-3.99,6.4-4.07.52-.03.86.08,1.05.32.17.23.18.55.04.96-.18.51-1.52,2.42-4.1,5.85-2.42,3.21-4.84,6.29-7.23,9.15l6.35-.79c.21-.01.31.06.36.13.07.1.08.23.03.38-.08.22-.3.44-.71.67-.38.22-1.01.39-1.9.5-.85.11-2.63.27-5.31.49-4.93,5.8-6.32,6.53-6.93,6.56-.04,0-.08,0-.12,0-.85,0-1.06-.56-1.11-.9-.27-1.69-.76-3.19-1.46-4.46l-1.05.8c-4.21,3.1-8.51,4.8-12.76,5.04-.38.02-.75.03-1.1.03ZM48.7,32.21s-.02,0-.04,0c-.19.01-.24.09-.27.17.02.06.13.2.82.3.73.11,1.64.13,2.7.07,4.17-.24,8.39-1.91,12.54-4.96l1.43-1.08.12.2c.78,1.36,1.33,2.97,1.62,4.81.04.27.18.58.8.54.58-.03,2.21-1.18,6.7-6.48l.06-.07h.09c2.72-.22,4.53-.39,5.38-.5.83-.11,1.42-.26,1.75-.45.33-.19.45-.32.5-.4l-7.32.91.34-.41c2.49-2.97,5.03-6.18,7.55-9.54,3.13-4.16,3.92-5.42,4.03-5.73.06-.18.12-.43.02-.57-.09-.12-.34-.18-.69-.16-1.24.07-3.3,1.4-6.14,3.96-1.39,1.26-2.81,2.57-4.2,3.89-4.03,3.84-7.4,6.87-10.01,9.01l-.08.06-.1-.02s-.12-.02-.36,0h-.11s-.07-.09-.07-.09c-1.46-2.05-3.45-3-5.92-2.87-.55.03-1.03.16-1.43.37-.38.2-.62.44-.71.71-.08.22-.07.42.04.62.19.35.81.86,2.65,1.3,1.22.3,2.83.46,4.77.49h.59s-.47.37-.47.37c-.03.02-.73.54-2.09,1.55-3.74,2.64-7.27,4.07-10.5,4.26-1.83.11-3.01.05-3.6-.18-.14-.06-.27-.08-.38-.08ZM68.33,31.69c-.18,0-.53-.07-.58-.6-.2-1.6-.67-3.12-1.4-4.51l-.16-.3h.34c1.05-.03,1.88-.05,2.47-.09.61-.04,2.17-.15,4.52-.32l.49-.04-.32.38c-4.56,5.44-5.09,5.47-5.32,5.48h0s-.02,0-.04,0ZM66.87,26.68c.67,1.36,1.1,2.82,1.3,4.36.02.23.1.22.17.23.18-.02,1.01-.56,4.71-4.95-2.07.15-3.46.25-4.03.29-.53.03-1.26.06-2.15.07ZM67.01,25.78l.47-.39c2.28-1.87,4.9-4.24,7.78-7.06,2.89-2.83,5.22-5.04,6.9-6.58,1.75-1.6,2.98-2.4,3.75-2.44h0c.21-.02.35.04.43.15.05.07.1.2.04.39-.18.51-1.55,2.42-4.19,5.84-2.6,3.37-5.2,6.6-7.74,9.62l-.05.06h-.08c-.7.09-1.6.16-2.76.23-1.14.07-2.46.12-3.93.17l-.61.02ZM85.94,9.72h0c-.45.03-1.42.45-3.49,2.34-1.68,1.53-4,3.74-6.89,6.57-2.7,2.64-5.16,4.89-7.34,6.7,1.23-.04,2.34-.09,3.31-.14,1.1-.06,1.97-.13,2.65-.21,2.52-2.99,5.1-6.2,7.68-9.54,3.17-4.11,3.99-5.38,4.12-5.71-.01,0-.03,0-.04,0ZM65.25,25.76l-.48-.02c-1.53-.08-2.83-.21-3.87-.4-1.47-.31-2.27-.65-2.51-1.09-.09-.17-.11-.35-.05-.53h0c.14-.41.6-.63,1.41-.67,2.01-.13,3.76.67,5.19,2.35l.31.37ZM60.13,23.44c-.12,0-.24,0-.36.01-.61.03-.97.17-1.04.4h0c-.02.07-.02.12.02.19.1.18.53.53,2.23.89.9.16,2.01.29,3.3.37-1.18-1.23-2.58-1.85-4.15-1.85Z"/>
            </g>
            <g>
              <path class="cls-1" d="M92.02,25.32l.74-.04c-2.62,1.88-4.95,3.01-6.99,3.37-.71.7-1.47,1.31-2.27,1.83-.8.52-1.42.79-1.85.82-.52.03-.67-.25-.46-.84.21-.59.77-1.45,1.69-2.57-.66-.77-.81-1.66-.46-2.67.19-.55.54-1,1.04-1.36.5-.36,1.11-.56,1.82-.6.71-.04,1.24.03,1.6.22,3.23-3.32,6.83-6.84,10.8-10.56l2.02-1.88c.3-.24.55-.37.77-.38.32-.02.45.13.38.44l-.08.22s-.1.14-.26.29c-6.14,5.7-10.48,9.81-13,12.33.37.52.42,1.14.16,1.88s-.7,1.47-1.31,2.21c1.52-.25,3.41-1.16,5.66-2.71ZM83.37,25.23c-.22.63-.15,1.24.22,1.81.67-.76,1.6-1.76,2.79-3.01-.24-.15-.55-.22-.91-.2-1.1.06-1.8.53-2.1,1.39ZM83.2,29.85c.37-.02.93-.39,1.69-1.12-.52.03-.98-.08-1.4-.32-.23.36-.38.63-.44.8-.15.44-.1.66.15.64ZM84.12,27.6c.41.29.87.45,1.38.48.62-.7,1.03-1.33,1.23-1.9s.23-1.08.09-1.52c-1.1,1.1-2,2.08-2.7,2.94Z"/>
              <path class="cls-1" d="M81.58,31.51c-.26,0-.45-.08-.57-.23-.15-.2-.15-.49-.02-.88.21-.6.74-1.42,1.62-2.51-.61-.79-.74-1.71-.38-2.74.2-.59.58-1.08,1.12-1.46.54-.38,1.19-.6,1.93-.64.66-.04,1.18.02,1.56.17,3.18-3.27,6.78-6.79,10.71-10.46l2.02-1.88c.34-.28.63-.42.9-.44.21-.02.4.04.51.17.11.12.14.3.09.52l-.09.25c-.02.07-.08.15-.31.37-6.02,5.59-10.35,9.69-12.88,12.21.32.54.35,1.19.09,1.92-.21.61-.54,1.21-.99,1.82,1.39-.35,3.07-1.21,5.02-2.56l.05-.03,1.51-.09-.58.42c-2.6,1.87-4.96,3.02-7.01,3.4-.7.69-1.46,1.3-2.26,1.81-.84.55-1.48.82-1.95.85-.03,0-.06,0-.08,0ZM85.65,23.46c-.11,0-.23,0-.36.01-.66.04-1.24.23-1.71.56-.47.33-.79.76-.97,1.26-.33.95-.19,1.75.42,2.46l.11.13-.11.14c-.9,1.1-1.46,1.95-1.66,2.51-.12.35-.06.47-.04.5.04.05.14.08.3.07.39-.02.98-.29,1.75-.79.79-.51,1.54-1.12,2.23-1.81l.05-.05h.06c.58-.12,1.19-.28,1.83-.52-.41.13-.79.23-1.16.29l-.55.09.36-.43c.6-.71,1.03-1.44,1.28-2.15.24-.67.19-1.23-.14-1.69l-.1-.14.12-.12c2.51-2.51,6.89-6.66,13-12.33.18-.17.21-.22.22-.23l.07-.2c.02-.08,0-.13,0-.14,0,0-.05-.03-.17-.02-.12,0-.32.07-.64.34l-2.01,1.87c-3.96,3.7-7.59,7.25-10.79,10.55l-.11.11-.14-.07c-.26-.14-.64-.2-1.13-.2ZM83.18,30.06c-.18,0-.28-.08-.34-.15-.12-.16-.12-.4.01-.76.06-.19.22-.46.46-.84l.11-.17.17.1c.38.22.82.32,1.29.29l.56-.03-.41.39c-.8.77-1.4,1.15-1.82,1.18h0s-.02,0-.04,0ZM83.56,28.69c-.2.33-.28.5-.31.59-.1.3-.07.38-.07.38l.03.19v-.21c.14,0,.48-.12,1.17-.72-.29-.04-.56-.12-.81-.24ZM85.58,28.29h-.1c-.55-.04-1.05-.22-1.49-.52l-.18-.13.14-.17c.71-.87,1.62-1.87,2.72-2.96l.24-.24.1.33c.15.49.12,1.05-.09,1.65-.21.59-.64,1.25-1.27,1.97l-.07.08ZM84.43,27.55c.3.17.63.28.98.31.56-.64.94-1.23,1.12-1.75.13-.37.18-.72.16-1.03-.89.9-1.65,1.73-2.26,2.47ZM83.56,27.39l-.15-.23c-.4-.63-.48-1.3-.24-1.99.33-.95,1.1-1.46,2.28-1.53.41-.02.76.05,1.03.23l.22.14-.18.18c-1.18,1.23-2.12,2.24-2.78,3l-.18.21ZM85.59,24.05s-.08,0-.12,0c-1.01.06-1.64.47-1.91,1.25h0c-.17.48-.15.94.06,1.39.61-.69,1.42-1.55,2.4-2.58-.13-.04-.27-.06-.43-.06Z"/>
            </g>
            <g>
              <path class="cls-1" d="M90.63,30.01c.11-.32.41-.74.9-1.26.49-.52.76-.83.81-.91.05-.09.04-.13-.02-.12-.06,0-.18.07-.33.19-.16.12-.97.6-2.43,1.44-1.46.84-2.42,1.27-2.87,1.3-.3.02-.39-.16-.25-.54s1.08-1.39,2.83-3.04c1.76-1.65,2.88-2.49,3.38-2.52.11,0,.19.04.26.12.06.09.09.16.07.21s-.8.73-2.34,2.04c-1.54,1.31-2.38,2.14-2.5,2.5-.03.08,0,.12.08.12.41-.02,1.48-.61,3.21-1.76s2.98-2.04,3.76-2.66c.78-.62,1.33-.94,1.65-.96.32-.02.44.11.34.38-.06.17-.18.34-.37.52-.19.18-.53.49-1.04.94-.51.45-.98.88-1.41,1.27-1.21,1.1-1.86,1.78-1.95,2.05s-.03.39.2.38c.23-.01.88-.34,1.97-.98,2-1.15,3.87-2.3,5.6-3.45l.91-.61c.19-.11.33-.17.44-.18.11,0,.14.05.09.18l-.03.09c.09,0-.65.49-2.21,1.49-1.56,1-3.21,2-4.94,3.01-1.73,1.01-2.78,1.52-3.15,1.54-.62.04-.84-.22-.65-.77Z"/>
              <path class="cls-1" d="M91.17,30.99c-.33,0-.56-.09-.7-.26-.14-.19-.15-.45-.04-.78h0c.12-.35.43-.78.94-1.33.06-.07.12-.13.17-.18-.35.21-.93.55-1.89,1.1-1.5.86-2.47,1.29-2.96,1.32-.26.03-.38-.08-.44-.17-.11-.15-.12-.36-.02-.65.09-.27.49-.88,2.89-3.13,2.41-2.26,3.16-2.55,3.51-2.57.18,0,.33.06.44.21.11.15.14.28.09.4-.02.08-.04.13-2.4,2.13-1.47,1.24-2.06,1.87-2.3,2.18.38-.14,1.18-.55,2.84-1.66,1.72-1.15,2.98-2.04,3.74-2.65.83-.67,1.39-.99,1.77-1.01.23-.01.42.04.51.17.09.12.1.29.04.48-.07.2-.21.4-.42.6-.19.18-.54.49-1.04.95-.51.45-.98.87-1.41,1.27-1.6,1.46-1.86,1.86-1.89,1.96-.02.05-.02.08-.03.1,0,0,.01,0,.02,0,.09,0,.44-.11,1.88-.95,1.99-1.14,3.87-2.3,5.59-3.44l.91-.61c.23-.14.4-.21.55-.21.17-.02.24.07.28.12.07.09.07.2.02.34v.02c.01.16-.21.31-2.33,1.67-1.56.99-3.22,2.01-4.95,3.01-2.37,1.38-2.98,1.56-3.24,1.57-.04,0-.08,0-.12,0ZM90.83,30.08h0c-.06.19-.07.33-.02.39.06.08.23.11.46.1.15,0,.61-.15,2-.92-.39.19-.56.23-.66.23-.22.01-.33-.07-.39-.15-.13-.18-.05-.42-.02-.5.07-.21.37-.64,2-2.13.43-.4.9-.82,1.41-1.27.5-.45.85-.76,1.04-.94.16-.15.27-.3.32-.43.02-.06.02-.09.02-.1,0,0-.03,0-.1,0-.01,0-.03,0-.05,0-.16,0-.56.14-1.53.92-.77.62-2.04,1.52-3.77,2.67-.05.03-.1.07-.15.1.3-.18.43-.27.48-.3.2-.16.34-.23.45-.23,0,0,.01,0,.02,0,.13,0,.2.08.22.12.06.09.05.2-.03.32-.04.07-.18.24-.83.95-.47.5-.75.9-.86,1.19ZM86.59,30.43s.03,0,.09,0c.23-.01.74-.17,1.87-.76-.15.05-.24.07-.32.07-.15.01-.22-.05-.26-.11-.04-.05-.08-.15-.03-.29.09-.26.45-.8,2.56-2.59,1.59-1.35,2.1-1.8,2.26-1.95,0,0-.01-.02-.02-.02-.02-.03-.04-.03-.07-.04-.25.01-1,.35-3.25,2.46-2.26,2.12-2.71,2.76-2.78,2.96-.07.2-.04.26-.04.26,0,0,0,0,0,0Z"/>
            </g>
            <g>
              <path class="cls-1" d="M108.77,24.23c.19-.11.35-.17.47-.18.13,0,.17.06.12.21l-.02.06c-2.87,1.94-5.2,3.41-7,4.4-1.8.99-3.3,1.52-4.51,1.59-.97.06-1.29-.38-.96-1.31.48-1.37,1.68-2.82,3.6-4.34,1.92-1.52,3.37-2.31,4.34-2.37.54-.03.7.25.5.84-.51,1.16-2.76,2.82-6.73,4.97l-.11.32c-.24.69,0,1.02.75.98.74-.04,1.63-.33,2.66-.87,2.02-1.06,3.97-2.26,5.87-3.59l1.04-.71ZM103.62,23.32c-.47.03-1.22.45-2.23,1.27-1.01.82-1.82,1.74-2.43,2.74,1.25-.67,2.34-1.37,3.29-2.09.95-.72,1.47-1.23,1.57-1.51s.03-.42-.21-.41Z"/>
              <path class="cls-1" d="M97.67,30.52c-.46,0-.79-.12-.98-.37-.21-.28-.22-.68-.03-1.22.49-1.4,1.73-2.89,3.67-4.43,1.98-1.57,3.43-2.36,4.45-2.42.31-.02.55.06.69.24.15.2.16.48.02.88-.54,1.23-2.75,2.87-6.76,5.05l-.08.24c-.1.27-.1.47-.03.57.08.1.27.15.57.13.71-.04,1.57-.32,2.57-.84,2-1.06,3.96-2.26,5.84-3.57l1.05-.72c.22-.13.4-.2.57-.21.16-.02.25.06.3.12.07.09.08.22.03.37l-.04.13-.06.04c-2.86,1.94-5.22,3.42-7.02,4.41-1.82,1-3.36,1.54-4.59,1.62-.06,0-.11,0-.17,0ZM104.88,22.5s-.04,0-.07,0c-.92.05-2.34.84-4.22,2.33s-3.07,2.92-3.54,4.25c-.1.27-.18.64-.03.83.15.19.5.21.79.2.91-.05,2.02-.39,3.3-.99-.71.3-1.35.46-1.9.49-.45.03-.75-.07-.92-.3-.17-.22-.18-.54-.03-.96l.14-.39.07-.04c3.91-2.11,6.14-3.75,6.64-4.87.11-.32.06-.44.04-.47-.04-.05-.13-.08-.26-.08ZM98.39,27.88l.39-.65c.61-1.02,1.45-1.96,2.48-2.79,1.06-.86,1.83-1.29,2.35-1.32h0c.22-.03.33.07.39.15.14.19.05.45.02.53-.07.21-.32.61-1.64,1.61-.96.73-2.07,1.44-3.32,2.11l-.67.36ZM103.66,23.53s-.02,0-.03,0h0c-.29.02-.9.24-2.11,1.23-.75.61-1.39,1.27-1.91,1.98.93-.53,1.77-1.09,2.51-1.66,1.19-.91,1.45-1.28,1.5-1.42.02-.06.03-.11.03-.13Z"/>
            </g>
            <g>
              <path class="cls-1" d="M116.06,23.81c.19-.11.35-.17.47-.18s.17.06.12.21l-.02.06c-2.87,1.94-5.01,3.3-6.42,4.08-1.9,1.2-3.36,1.83-4.39,1.89-.9.05-1.17-.45-.8-1.5.49-1.41,2.15-3.56,4.98-6.43,2.83-2.88,5.79-5.49,8.89-7.83,3.1-2.35,5.23-3.55,6.42-3.62.54-.03.72.19.56.65-.41,1.16-2.49,3.15-6.25,5.98-3.76,2.83-7.33,5.26-10.72,7.29-1.32,1.54-2.11,2.7-2.39,3.48s-.13,1.15.43,1.12c.56-.03,1.4-.39,2.52-1.07,1.84-.97,3.69-2.11,5.55-3.42l1.04-.71ZM124.13,11.55c-.9.05-2.95,1.42-6.14,4.1-3.19,2.68-5.99,5.34-8.38,7.97,3.08-1.87,6.23-4.12,9.47-6.75,3.24-2.63,4.99-4.32,5.24-5.05.07-.19,0-.28-.19-.27Z"/>
              <path class="cls-1" d="M105.69,30.09c-.41,0-.7-.12-.88-.35-.23-.31-.23-.78,0-1.43.51-1.45,2.15-3.58,5.03-6.51,2.82-2.87,5.81-5.51,8.91-7.85,3.16-2.39,5.3-3.59,6.53-3.66.35-.02.6.06.73.24.13.17.14.4.04.69-.42,1.21-2.49,3.2-6.32,6.08-3.73,2.81-7.33,5.26-10.71,7.28-1.28,1.5-2.07,2.64-2.33,3.39-.19.53-.11.71-.07.77.06.07.18.08.29.08.52-.03,1.34-.38,2.43-1.04,1.83-.97,3.69-2.11,5.54-3.41l1.05-.72c.22-.13.4-.2.57-.21.14-.01.25.06.3.12.07.09.08.22.03.37l-.04.13-.06.04c-2.86,1.93-5.02,3.31-6.44,4.09-1.93,1.23-3.4,1.86-4.48,1.92-.05,0-.09,0-.13,0ZM125.39,10.7s-.05,0-.09,0c-1.13.07-3.25,1.27-6.3,3.58-3.08,2.33-6.06,4.96-8.86,7.81-2.79,2.84-4.45,4.98-4.93,6.35-.18.5-.2.86-.06,1.04.1.14.31.2.65.18.94-.05,2.29-.62,4.01-1.69-.08.05-.17.09-.25.13-1.15.7-2.01,1.06-2.61,1.1-.3,0-.52-.06-.65-.24-.18-.24-.17-.62.01-1.16.27-.76.99-1.84,2.2-3.28h-.02s.17-.17.17-.17c.03-.03.05-.06.08-.1l.04-.03.69-.75c2.38-2.62,5.21-5.31,8.4-7.99,3.26-2.74,5.31-4.09,6.26-4.15h0c.16-.02.29.04.37.14.08.1.09.24.03.41-.27.78-2.01,2.47-5.31,5.15-.76.61-1.51,1.21-2.26,1.78.84-.6,1.68-1.22,2.53-1.86,3.71-2.79,5.79-4.77,6.17-5.88.05-.14.06-.25.02-.3-.01-.02-.07-.07-.29-.07ZM124.13,11.76c-.6.05-2.13.8-6,4.05-2.71,2.28-5.16,4.56-7.3,6.81,2.64-1.69,5.37-3.67,8.12-5.91,3.95-3.21,5-4.46,5.18-4.95ZM124.14,11.7s.03.06.05.06l-.06-.21v.15Z"/>
            </g>
            <g>
              <path class="cls-1" d="M118.38,25.1c-.13,0-.18-.04-.14-.13s.15-.21.34-.34c.91-.61,1.44-1.15,1.61-1.61.1-.29-.11-.45-.63-.46-.97.08-2.37.83-4.18,2.25-1.82,1.43-2.84,2.48-3.08,3.15-.08.23.01.34.28.32.27-.02.69-.21,1.27-.6.5-.28,1.48-.95,2.95-2.03.35-.27.64-.41.87-.42.3-.02.4.11.31.38-.04.11-.1.19-.19.26-.09.07-.25.21-.49.42-.24.21-.46.4-.64.58-.58.57-.9.94-.96,1.11-.15.42-.05.62.3.6.45-.03,1.44-.48,2.97-1.36,1.53-.88,2.95-1.76,4.27-2.65l1.97-1.29c.19-.11.35-.17.47-.18.13,0,.17.06.12.21l-.02.06c-2.13,1.46-4.33,2.85-6.59,4.16-2.26,1.31-3.68,1.98-4.26,2.01-.69.04-.91-.3-.66-1.01.06-.17.15-.33.26-.48.12-.15.19-.26.21-.32s.02-.1-.02-.12c-.06,0-.58.31-1.54.92s-1.73.94-2.3.97c-.57.03-.75-.25-.55-.84s.89-1.41,2.04-2.45c1.16-1.05,2.55-2.02,4.2-2.92,1.64-.9,3.11-1.39,4.4-1.46.3-.02.53.04.68.18.15.14.18.36.07.66s-.58.78-1.42,1.43c-.84.65-1.48.98-1.93,1.01Z"/>
              <path class="cls-1" d="M114.83,29.75c-.34,0-.58-.1-.73-.29-.17-.23-.18-.56-.02-1.01.04-.12.1-.24.16-.35-.22.13-.52.32-.95.59-1,.64-1.78.96-2.4,1-.34.02-.59-.06-.73-.25-.15-.2-.16-.48-.02-.86.22-.63.91-1.46,2.1-2.54,1.17-1.05,2.59-2.05,4.24-2.95,1.66-.91,3.17-1.41,4.49-1.49.35-.02.63.06.83.23.15.14.3.4.13.89-.12.35-.6.84-1.48,1.52-.88.68-1.55,1.02-2.05,1.05h0c-.08,0-.15,0-.2-.03.05.11.04.25-.01.41-.05.15-.14.26-.26.36-.08.06-.25.2-.48.41-.24.21-.45.4-.64.57-.75.74-.88.96-.9,1.02-.07.21-.06.29-.04.31,0,0,.02.02.13.02.29-.02,1.02-.26,2.88-1.34,1.52-.87,2.95-1.76,4.26-2.64l1.97-1.29c.22-.14.41-.21.58-.22.16-.02.25.06.3.12.07.09.08.22.03.37l-.04.13-.06.04c-2.12,1.46-4.35,2.86-6.6,4.16-2.31,1.34-3.73,2-4.35,2.04-.04,0-.08,0-.11,0ZM114.78,27.39l.05.03c.1.06.18.18.12.38-.03.09-.1.2-.24.38-.1.13-.18.27-.23.42-.1.3-.12.52-.04.62.09.11.31.12.48.12.28-.02.91-.22,2.33-.96-.57.26-.98.4-1.24.42-.21.02-.39-.05-.49-.18-.12-.16-.12-.39-.02-.7.05-.14.21-.4,1.01-1.19.19-.18.41-.38.65-.59.25-.21.41-.35.5-.42.06-.04.1-.1.12-.17.02-.06.02-.09.02-.1,0,0-.03,0-.08,0-.01,0-.02,0-.04,0-.13,0-.37.08-.76.38-.93.68-1.68,1.21-2.23,1.57,0,0,.01,0,.02,0h.06ZM118.17,22.75c-.48.2-.97.44-1.48.72-1.62.89-3.02,1.86-4.16,2.89-1.12,1.02-1.79,1.82-1.99,2.37-.08.23-.09.4-.04.47.05.06.18.1.37.08.52-.03,1.25-.34,2.16-.91-.17.07-.32.11-.44.11-.21.01-.37-.04-.46-.16-.09-.11-.1-.26-.03-.44.25-.72,1.28-1.78,3.14-3.24,1.14-.9,2.11-1.52,2.92-1.9ZM119.55,22.77c-.91.07-2.28.82-4.05,2.21-1.78,1.39-2.79,2.42-3.01,3.05,0,.02-.01.04-.01.05.01,0,.04,0,.09,0,.16,0,.49-.11,1.16-.56.5-.28,1.49-.96,2.94-2.02.38-.29.7-.45.99-.46.15-.01.28.01.37.07-.01-.05-.02-.11.01-.19.05-.15.18-.29.42-.45.87-.58,1.38-1.09,1.53-1.51.01-.04.02-.07.01-.08,0,0-.07-.09-.45-.1ZM118.34,24.89l.04.21v-.2s-.04-.01-.04-.01ZM119.54,22.35c.43,0,.68.1.8.28.06.09.12.24.04.46-.18.51-.73,1.07-1.69,1.71-.02.02-.05.03-.06.05.39-.11.91-.42,1.56-.92,1-.77,1.28-1.15,1.35-1.33.08-.22.07-.36-.01-.44-.11-.1-.29-.14-.53-.13-.65.04-1.35.19-2.11.44.23-.07.45-.11.65-.13Z"/>
            </g>
          </g>
        </g>
      </g>
      <g>
        <ellipse class="cls-1" cx="121.31" cy="28.99" rx="1.24" ry=".47" transform="translate(5.64 75.66) rotate(-35.41)"/>
        <path class="cls-1" d="M120.54,30.01c-.17,0-.32-.05-.41-.18-.27-.38.22-.99.79-1.39.57-.41,1.3-.67,1.58-.29h0c.07.1.16.33-.1.72-.15.23-.4.47-.69.67-.38.27-.83.47-1.17.47ZM122.09,28.38c-.15,0-.49.09-.93.4-.54.38-.71.74-.69.82.07.03.46-.02.99-.4.52-.37.7-.72.69-.81-.01,0-.04-.01-.07-.01Z"/>
      </g>
    </g>
  </g>
</svg>